<svg xmlns="http://www.w3.org/2000/svg" xmlns:xlink="http://www.w3.org/1999/xlink" width="28" zoomAndPan="magnify" viewBox="0 0 21 20.999999" height="28" preserveAspectRatio="xMidYMid meet" version="1.0"><defs><clipPath id="b44caf3f2d"><path d="M 0 0 L 20.789062 0 L 20.789062 20.789062 L 0 20.789062 Z M 0 0 " clip-rule="nonzero"/></clipPath><clipPath id="eeecf0edc9"><path d="M 10.394531 0 C 4.652344 0 0 4.652344 0 10.394531 C 0 16.132812 4.652344 20.789062 10.394531 20.789062 C 16.132812 20.789062 20.789062 16.132812 20.789062 10.394531 C 20.789062 4.652344 16.132812 0 10.394531 0 Z M 10.394531 0 " clip-rule="nonzero"/></clipPath><clipPath id="f44bb77e9b"><path d="M 7.207031 3.65625 L 13.496094 3.65625 L 13.496094 17.132812 L 7.207031 17.132812 Z M 7.207031 3.65625 " clip-rule="nonzero"/></clipPath></defs><g clip-path="url(#b44caf3f2d)"><g clip-path="url(#eeecf0edc9)"><path fill="#9db4c0" d="M 0 0 L 20.789062 0 L 20.789062 20.789062 L 0 20.789062 Z M 0 0 " fill-opacity="1" fill-rule="nonzero"/></g></g><g clip-path="url(#f44bb77e9b)"><path fill="#5c6b73" d="M 12.105469 5.890625 L 13.574219 5.890625 L 13.574219 3.675781 L 11.699219 3.675781 L 11.699219 3.6875 C 9.230469 3.773438 8.726562 5.160156 8.679688 6.617188 L 8.675781 6.617188 L 8.675781 8.152344 L 7.207031 8.152344 L 7.207031 10.371094 L 8.675781 10.371094 L 8.675781 17.109375 L 11.3125 17.109375 L 11.3125 10.371094 L 13.203125 10.371094 L 13.574219 8.152344 L 11.3125 8.152344 L 11.3125 6.777344 C 11.3125 6.289062 11.640625 5.890625 12.105469 5.890625 Z M 12.105469 5.890625 " fill-opacity="1" fill-rule="nonzero"/></g></svg>