<svg xmlns="http://www.w3.org/2000/svg" xmlns:xlink="http://www.w3.org/1999/xlink" width="28" zoomAndPan="magnify" viewBox="0 0 21 20.999999" height="28" preserveAspectRatio="xMidYMid meet" version="1.0"><defs><clipPath id="5fc9b109f1"><path d="M 0 0 L 20.789062 0 L 20.789062 20.789062 L 0 20.789062 Z M 0 0 " clip-rule="nonzero"/></clipPath><clipPath id="0646ae7d51"><path d="M 10.394531 0 C 4.652344 0 0 4.652344 0 10.394531 C 0 16.132812 4.652344 20.789062 10.394531 20.789062 C 16.132812 20.789062 20.789062 16.132812 20.789062 10.394531 C 20.789062 4.652344 16.132812 0 10.394531 0 Z M 10.394531 0 " clip-rule="nonzero"/></clipPath><clipPath id="bff6065221"><path d="M 3.65625 3.65625 L 17.132812 3.65625 L 17.132812 17.132812 L 3.65625 17.132812 Z M 3.65625 3.65625 " clip-rule="nonzero"/></clipPath></defs><g clip-path="url(#5fc9b109f1)"><g clip-path="url(#0646ae7d51)"><path fill="#9db4c0" d="M 0 0 L 20.789062 0 L 20.789062 20.789062 L 0 20.789062 Z M 0 0 " fill-opacity="1" fill-rule="nonzero"/></g></g><g clip-path="url(#bff6065221)"><path fill="#5c6b73" d="M 10.390625 4.871094 C 12.1875 4.871094 12.402344 4.875 13.113281 4.910156 C 13.769531 4.9375 14.125 5.046875 14.363281 5.140625 C 14.679688 5.261719 14.902344 5.410156 15.136719 5.648438 C 15.375 5.882812 15.519531 6.109375 15.644531 6.421875 C 15.734375 6.65625 15.84375 7.015625 15.875 7.671875 C 15.910156 8.382812 15.914062 8.597656 15.914062 10.394531 C 15.914062 12.191406 15.910156 12.40625 15.875 13.117188 C 15.847656 13.773438 15.738281 14.128906 15.644531 14.371094 C 15.523438 14.683594 15.375 14.90625 15.136719 15.144531 C 14.902344 15.378906 14.679688 15.523438 14.363281 15.648438 C 14.128906 15.738281 13.773438 15.847656 13.113281 15.882812 C 12.402344 15.914062 12.1875 15.917969 10.390625 15.917969 C 8.59375 15.917969 8.378906 15.914062 7.667969 15.882812 C 7.011719 15.851562 6.65625 15.742188 6.417969 15.648438 C 6.101562 15.527344 5.878906 15.378906 5.644531 15.144531 C 5.40625 14.90625 5.261719 14.683594 5.136719 14.371094 C 5.046875 14.132812 4.9375 13.777344 4.90625 13.117188 C 4.871094 12.40625 4.867188 12.191406 4.867188 10.394531 C 4.867188 8.597656 4.871094 8.382812 4.90625 7.671875 C 4.933594 7.015625 5.042969 6.660156 5.136719 6.421875 C 5.257812 6.109375 5.40625 5.882812 5.644531 5.648438 C 5.878906 5.410156 6.101562 5.265625 6.417969 5.140625 C 6.652344 5.050781 7.011719 4.941406 7.667969 4.910156 C 8.378906 4.875 8.59375 4.871094 10.390625 4.871094 M 10.390625 3.65625 C 8.558594 3.65625 8.332031 3.664062 7.613281 3.699219 C 6.894531 3.730469 6.40625 3.847656 5.976562 4.011719 C 5.535156 4.183594 5.160156 4.414062 4.785156 4.789062 C 4.410156 5.164062 4.179688 5.539062 4.011719 5.980469 C 3.84375 6.410156 3.730469 6.898438 3.695312 7.617188 C 3.664062 8.335938 3.65625 8.566406 3.65625 10.390625 C 3.65625 12.222656 3.664062 12.449219 3.695312 13.171875 C 3.730469 13.886719 3.84375 14.378906 4.011719 14.804688 C 4.179688 15.25 4.410156 15.625 4.785156 16 C 5.160156 16.375 5.535156 16.605469 5.980469 16.777344 C 6.40625 16.941406 6.898438 17.054688 7.613281 17.089844 C 8.332031 17.121094 8.5625 17.128906 10.394531 17.128906 C 12.222656 17.128906 12.453125 17.121094 13.171875 17.089844 C 13.890625 17.054688 14.378906 16.941406 14.808594 16.777344 C 15.25 16.605469 15.625 16.375 16 16 C 16.375 15.625 16.605469 15.25 16.777344 14.804688 C 16.941406 14.378906 17.058594 13.886719 17.089844 13.171875 C 17.121094 12.453125 17.132812 12.222656 17.132812 10.390625 C 17.132812 8.5625 17.121094 8.335938 17.089844 7.613281 C 17.058594 6.894531 16.941406 6.40625 16.777344 5.976562 C 16.605469 5.535156 16.375 5.160156 16 4.785156 C 15.625 4.410156 15.25 4.179688 14.808594 4.007812 C 14.378906 3.84375 13.890625 3.726562 13.171875 3.695312 C 12.453125 3.664062 12.222656 3.65625 10.390625 3.65625 " fill-opacity="1" fill-rule="nonzero"/></g><path fill="#5c6b73" d="M 10.390625 6.933594 C 8.480469 6.933594 6.933594 8.480469 6.933594 10.390625 C 6.933594 12.300781 8.484375 13.851562 10.394531 13.851562 C 12.304688 13.851562 13.855469 12.304688 13.855469 10.390625 C 13.851562 8.480469 12.300781 6.933594 10.390625 6.933594 M 10.390625 12.640625 C 9.152344 12.640625 8.148438 11.636719 8.148438 10.394531 C 8.148438 9.15625 9.152344 8.152344 10.390625 8.152344 C 11.628906 8.152344 12.632812 9.15625 12.632812 10.394531 C 12.636719 11.632812 11.628906 12.640625 10.390625 12.640625 " fill-opacity="1" fill-rule="nonzero"/><path fill="#5c6b73" d="M 14.796875 6.796875 C 14.796875 7.246094 14.433594 7.609375 13.988281 7.609375 C 13.542969 7.609375 13.179688 7.246094 13.179688 6.796875 C 13.179688 6.351562 13.542969 5.988281 13.988281 5.988281 C 14.433594 5.988281 14.796875 6.351562 14.796875 6.796875 " fill-opacity="1" fill-rule="nonzero"/></svg>