<svg xmlns="http://www.w3.org/2000/svg" xmlns:xlink="http://www.w3.org/1999/xlink" width="28" zoomAndPan="magnify" viewBox="0 0 21 20.999999" height="28" preserveAspectRatio="xMidYMid meet" version="1.0"><defs><clipPath id="02ecb8b0e5"><path d="M 0 0 L 20.789062 0 L 20.789062 20.789062 L 0 20.789062 Z M 0 0 " clip-rule="nonzero"/></clipPath><clipPath id="68d47ba3c4"><path d="M 10.394531 0 C 4.652344 0 0 4.652344 0 10.394531 C 0 16.132812 4.652344 20.789062 10.394531 20.789062 C 16.132812 20.789062 20.789062 16.132812 20.789062 10.394531 C 20.789062 4.652344 16.132812 0 10.394531 0 Z M 10.394531 0 " clip-rule="nonzero"/></clipPath><clipPath id="4c36025475"><path d="M 3.246094 4.328125 L 17.621094 4.328125 L 17.621094 16.457031 L 3.246094 16.457031 Z M 3.246094 4.328125 " clip-rule="nonzero"/></clipPath></defs><g clip-path="url(#02ecb8b0e5)"><g clip-path="url(#68d47ba3c4)"><path fill="#9db4c0" d="M 0 0 L 20.789062 0 L 20.789062 20.789062 L 0 20.789062 Z M 0 0 " fill-opacity="1" fill-rule="nonzero"/></g></g><g clip-path="url(#4c36025475)"><path fill="#5c6b73" d="M 16.308594 7.585938 C 16.316406 7.714844 16.316406 7.84375 16.316406 7.972656 C 16.316406 11.914062 13.316406 16.457031 7.832031 16.457031 L 7.832031 16.453125 C 6.214844 16.457031 4.625 15.992188 3.261719 15.117188 C 3.5 15.144531 3.734375 15.160156 3.972656 15.160156 C 5.316406 15.160156 6.621094 14.710938 7.675781 13.882812 C 6.398438 13.855469 5.28125 13.023438 4.890625 11.808594 C 5.335938 11.898438 5.796875 11.878906 6.234375 11.757812 C 4.84375 11.476562 3.84375 10.257812 3.84375 8.835938 C 3.84375 8.824219 3.84375 8.8125 3.84375 8.800781 C 4.257812 9.03125 4.722656 9.15625 5.199219 9.171875 C 3.886719 8.296875 3.484375 6.554688 4.273438 5.191406 C 5.789062 7.054688 8.023438 8.1875 10.417969 8.304688 C 10.179688 7.269531 10.507812 6.1875 11.28125 5.457031 C 12.484375 4.328125 14.371094 4.386719 15.5 5.585938 C 16.167969 5.457031 16.808594 5.210938 17.394531 4.863281 C 17.171875 5.554688 16.707031 6.140625 16.082031 6.511719 C 16.675781 6.441406 17.25 6.285156 17.796875 6.042969 C 17.394531 6.644531 16.890625 7.164062 16.308594 7.585938 Z M 16.308594 7.585938 " fill-opacity="1" fill-rule="nonzero"/></g></svg>